#!OML:ASF F:\VICON\USERDATA\INSTALL\Justin_Nancy\Justin_Nancy.ASF
:FULLY-SPECIFIED
:DEGREES
16
root 12.2364 17.5842 -23.8422 -0.763237 -4.30183 0.74866
lowerback 5.87579 1.05416 -2.12182
upperback 0.155083 1.30596 1.37138
thorax -3.21515 0.692065 2.49528
lowerneck -15.0393 -4.22687 -8.91181
upperneck 21.4166 -5.04628 5.79754
head 9.63704 -2.4409 2.85385
rclavicle 5.2181e-016 0
rhumerus -29.5267 -14.8644 -80.1811
rradius 30.7567
rwrist 7.11383
rhand -12.3757 10.9386
rfingers 7.12502
rthumb 13.6949 -18.5908
lclavicle 5.2181e-016 0
lhumerus -32.7019 22.6373 78.769
lradius 16.6105
lwrist -21.2557
lhand -11.8761 29.2746
lfingers 7.12502
lthumb 14.1764 58.7709
rfemur -6.26361 -0.0767375 20.9265
rtibia 59.7596
rfoot 14.2493 1.02514
rtoes 9.47074
lfemur -16.8089 -0.572795 -25.0969
ltibia 26.2036
lfoot -6.37967 -1.43992
ltoes 6.57235
17
root 12.2509 17.5794 -23.6883 -0.890944 -4.21151 0.87612
lowerback 5.77588 0.808127 -2.18449
upperback 0.792742 0.97852 1.49853
thorax -2.48436 0.513616 2.69524
lowerneck -16.9158 -4.22226 -9.42653
upperneck 21.5399 -4.75354 5.90661
head 10.0267 -2.30399 2.99936
rclavicle 3.3048e-015 -5.96354e-015
rhumerus -28.179 -14.3307 -80.4874
rradius 30.0523
rwrist 7.29767
rhand -11.9398 9.61913
rfingers 7.12502
rthumb 14.1151 -19.8814
lclavicle 3.3048e-015 -5.96354e-015
lhumerus -31.1556 23.3672 79.3636
lradius 16.5786
lwrist -21.6511
lhand -12.1195 29.3169
lfingers 7.12502
lthumb 13.9419 58.8294
rfemur -7.64423 -0.463225 20.7003
rtibia 61.7889
rfoot 12.8954 -0.851407
rtoes 7.25548
lfemur -16.1168 -0.671765 -25.3465
ltibia 26.0748
lfoot -6.66948 -1.36127
ltoes 7.49702
18
root 12.2614 17.5794 -23.5381 -1.0215 -3.89206 1.14437
lowerback 5.83439 0.778839 -2.50311
upperback 0.477637 0.914341 1.36288
thorax -2.84103 0.493329 2.73762
lowerneck -15.2376 -4.10064 -9.1089
upperneck 21.007 -4.79604 5.85082
head 9.51642 -2.32847 2.93223
rclavicle -6.01324e-015 1.59028e-015
rhumerus -29.3117 -14.6936 -80.2536
rradius 29.7834
rwrist 7.89244
rhand -12.5092 11.2619
rfingers 7.12502
rthumb 13.5663 -18.2761
lclavicle -6.01324e-015 1.59028e-015
lhumerus -31.5239 22.4631 79.2824
lradius 16.7473
lwrist -21.6433
lhand -12.0432 29.5774
lfingers 7.12502
lthumb 14.0154 59.0849
rfemur -8.95184 -1.06151 20.3401
rtibia 63.541
rfoot 11.7335 -2.40514
rtoes 7.35285
lfemur -15.577 -0.974914 -25.7005
ltibia 25.9185
lfoot -6.76921 -1.45834
ltoes 9.66062
19
root 12.2696 17.5955 -23.3902 -1.12144 -3.63978 1.24883
lowerback 5.9846 0.601113 -2.75712
upperback 0.167118 0.659027 1.44238
thorax -3.23329 0.380486 2.98331
lowerneck -13.9834 -3.89239 -9.15385
upperneck 20.7788 -4.55976 5.66341
head 9.18086 -2.26144 2.91632
rclavicle 1.16786e-014 -9.54166e-015
rhumerus -30.2544 -14.2862 -80.0527
rradius 29.5617
rwrist 8.23921
rhand -12.41 12.0308
rfingers 7.12502
rthumb 13.6618 -17.5008
lclavicle 1.16786e-014 -9.54166e-015
lhumerus -32.1056 22.22 79.1564
lradius 17.0577
lwrist -21.6107
lhand -12.3904 28.1126
lfingers 7.12502
lthumb 13.6808 57.6429
rfemur -10.3032 -1.45738 20.2177
rtibia 65.0102
rfoot 10.7479 -3.76714
rtoes 7.6155
lfemur -14.5515 -0.705351 -25.9457
ltibia 25.7054
lfoot -7.47981 -1.75059
ltoes 8.94657
20
root 12.2752 17.6065 -23.2369 -1.31005 -3.62018 1.24674
lowerback 6.09547 0.528656 -2.8441
upperback 0.139762 0.555762 1.50544
thorax -3.31793 0.332731 3.10665
lowerneck -13.6012 -3.78165 -9.12337
upperneck 20.6994 -4.40274 5.47743
head 9.065 -2.21069 2.86971
rclavicle -1.30452e-015 -9.54166e-015
rhumerus -30.7151 -14.463 -79.8295
rradius 28.989
rwrist 9.44773
rhand -12.5836 12.8955
rfingers 7.12502
rthumb 13.4946 -16.6473
lclavicle -1.30452e-015 -9.54166e-015
lhumerus -32.0918 21.5773 79.4399
lradius 17.5705
lwrist -21.4173
lhand -12.9679 25.3109
lfingers 7.12502
lthumb 13.1241 54.8779
rfemur -11.5428 -1.52164 20.2421
rtibia 66.2915
rfoot 10.0712 -5.08082
rtoes 8.59044
lfemur -13.5426 -0.456273 -26.0179
ltibia 25.4649
lfoot -7.99164 -1.82524
ltoes 8.37848
